<?xml version="1.0" encoding="utf-8"?>
<svg xmlns="http://www.w3.org/2000/svg" viewBox="0 0 750 500">
  <g id="freepik--background-complete--inject-364" transform="matrix(0.953728, 0, 0, 0.953728, 17.33868, 19.429073)">
    <path d="M578.56,118.66l1,3.53-3.18,22.48-5.93,1.65,3.14-21.48L565.75,127l1.07,3.84L562,132.2l-2.31-8.29Z" style="fill:#e0e0e0"/>
    <path d="M602.72,129.35c1.16,4.18-.89,8.67-7.62,10.54a16.91,16.91,0,0,1-9.7,0l1-4.78a11.83,11.83,0,0,0,7.3.26c2.72-.76,4.09-2.37,3.56-4.29s-2.07-2.73-6.35-1.54l-6,1.68-2.48-13.61,14.38-4L598,118l-9.84,2.73.88,4.59,1.92-.54C597.93,122.81,601.56,125.18,602.72,129.35Z" style="fill:#e0e0e0"/>
    <path d="M602.28,118.77c-1.06-3.84.38-7,3.55-7.88s6,1,7.1,4.92-.41,7-3.55,7.88S603.35,122.61,602.28,118.77Zm9-2.49c-.85-3.06-2.8-4.48-5-3.87s-3.13,2.86-2.28,5.9,2.77,4.49,5,3.87S612.09,119.35,611.24,116.28Zm8.91-9.19,2-.55-9.54,28.05-2,.55Zm-.33,18.78c-1.06-3.84.41-7,3.54-7.88s6,1.08,7.11,4.92-.38,7-3.55,7.88S620.89,129.71,619.82,125.87Zm9-2.49c-.84-3-2.77-4.49-5-3.87s-3.14,2.83-2.28,5.89,2.8,4.48,5,3.87S629.62,126.41,628.78,123.38Z" style="fill:#e0e0e0"/>
    <path d="M137.8,76.68l1,3.81-15.25,3.92-.78-3,5.9-9.35c1.35-2.16,1.4-3.28,1.15-4.26-.41-1.59-1.74-2.23-3.87-1.68a5.07,5.07,0,0,0-3.66,3.09l-4-1.32c1-2.68,3.42-4.87,7-5.81,4.5-1.15,8.09.39,9,4,.51,2,.42,3.89-1.74,7.24l-3.51,5.57Z" style="fill:#e0e0e0"/>
    <path d="M138.06,69.92c-1.71-6.67,1-11.39,6-12.66s9.62,1.55,11.33,8.21-1,11.38-6,12.66S139.77,76.58,138.06,69.92Zm12.6-3.24c-1.18-4.59-3.28-6.07-5.62-5.47s-3.43,2.91-2.25,7.49,3.28,6.07,5.59,5.48S151.84,71.26,150.66,66.68Z" style="fill:#e0e0e0"/>
    <path d="M156.51,60.11c-.85-3.29.44-6,3.15-6.65s5.11,1,6,4.31-.47,6-3.15,6.65S157.35,63.39,156.51,60.11Zm7.67-2c-.68-2.63-2.32-3.87-4.19-3.38s-2.71,2.38-2,5,2.28,3.87,4.19,3.38S164.85,60.76,164.18,58.14Zm7.74-7.68,1.7-.43L165,73.75l-1.7.44Zm-.6,16c-.84-3.29.47-6,3.15-6.65s5.12,1,6,4.31-.44,6-3.15,6.64S172.17,69.73,171.32,66.45Zm7.67-2c-.67-2.6-2.28-3.87-4.19-3.38s-2.71,2.35-2,5,2.32,3.86,4.19,3.38S179.66,67.07,179,64.48Z" style="fill:#e0e0e0"/>
    <path d="M327.23,139.91c.08,4.13-3,8-10,8.08a16.76,16.76,0,0,1-9.37-2.46l2.12-4.37a12,12,0,0,0,7,2.08c2.83-.05,4.56-1.23,4.53-3.23,0-1.85-1.42-3-4.63-2.92l-2.59,0-.06-3.74,4.93-5.78-10.42.18-.07-4.55,17.12-.29.07,3.67L320.47,133C324.89,133.63,327.17,136.31,327.23,139.91Z" style="fill:#e0e0e0"/>
    <path d="M329.77,135.12C329.63,127,334,122.39,340,122.28s10.56,4.4,10.7,12.47-4.22,12.74-10.26,12.84S329.91,143.19,329.77,135.12Zm15.28-.27c-.1-5.55-2.1-7.83-4.93-7.78s-4.71,2.39-4.61,8,2.09,7.83,4.88,7.78S345.14,140.41,345.05,134.85Z" style="fill:#e0e0e0"/>
    <path d="M353.51,128.94c-.07-4,2.12-6.68,5.41-6.74s5.57,2.53,5.64,6.55-2.16,6.68-5.41,6.73S353.58,132.92,353.51,128.94Zm9.3-.16c-.06-3.18-1.59-5-3.86-5s-3.75,2-3.69,5.14,1.55,5,3.86,5S362.86,132,362.81,128.78Zm10.93-6.66,2.06,0-16.28,24.75-2.06,0Zm-5,18.09c-.06-4,2.16-6.68,5.41-6.73s5.57,2.56,5.64,6.54-2.12,6.68-5.41,6.74S368.77,144.2,368.7,140.21Zm9.3-.16c-.05-3.14-1.55-5-3.86-5s-3.74,1.95-3.69,5.13,1.59,5,3.86,5S378.06,143.2,378,140.05Z" style="fill:#e0e0e0"/>
    <path d="M445.58,64.33c-.48,3.12-3.19,5.49-8.23,4.72a12.33,12.33,0,0,1-6.44-2.91L433,63.26a8.58,8.58,0,0,0,4.77,2.35c2.05.31,3.44-.35,3.66-1.79s-.56-2.43-3.76-2.92l-4.51-.69,2.42-9.79,10.76,1.64-.5,3.28-7.36-1.12-.79,3.3,1.44.22C444.35,58.54,446.06,61.2,445.58,64.33Z" style="fill:#f5f5f5"/>
    <path d="M447.74,61.31c.89-5.83,4.62-8.64,9-8s7.06,4.45,6.17,10.28-4.6,8.63-9,8S446.86,67.13,447.74,61.31Zm11,1.68c.61-4-.55-5.89-2.59-6.2s-3.68,1.14-4.29,5.15.54,5.88,2.56,6.19S458.15,67,458.76,63Z" style="fill:#f5f5f5"/>
    <path d="M465.57,59.77c.44-2.87,2.35-4.54,4.72-4.18s3.69,2.5,3.25,5.4-2.37,4.54-4.72,4.18S465.13,62.65,465.57,59.77ZM481,57.35l1.49.23L467.7,73.38l-1.49-.23Zm-8.67,3.45c.35-2.3-.53-3.82-2.17-4.07s-2.93,1-3.28,3.24.5,3.81,2.17,4.07S471.93,63.09,472.28,60.8Zm2.83,8.94c.44-2.87,2.37-4.54,4.72-4.18s3.69,2.53,3.25,5.4-2.35,4.54-4.72,4.18S474.67,72.62,475.11,69.74Zm6.71,1c.34-2.27-.5-3.82-2.17-4.07s-2.93.94-3.28,3.23.53,3.83,2.17,4.08S481.47,73,481.82,70.77Z" style="fill:#f5f5f5"/>
    <path d="M44.24,149.19l-3.66,15.63L37,164l3-12.73-3.13-.73.68-2.91Z" style="fill:#f5f5f5"/>
    <path d="M45.14,157.65c1.2-5.16,4.75-7.42,8.59-6.52s6,4.5,4.8,9.65-4.72,7.42-8.59,6.52S43.93,162.81,45.14,157.65Zm9.76,2.28c.83-3.55-.08-5.32-1.89-5.74s-3.38.76-4.21,4.31.07,5.32,1.86,5.74S54.06,163.48,54.9,159.93Z" style="fill:#f5f5f5"/>
    <path d="M75.19,156.44l1.32.31L62.17,169.88l-1.31-.31Zm-14,1.09c.6-2.55,2.43-3.91,4.53-3.42s3.13,2.5,2.53,5.07-2.44,3.9-4.52,3.42S60.63,160.07,61.22,157.53Zm5.94,1.39c.48-2-.2-3.46-1.65-3.8s-2.7.66-3.17,2.67.18,3.46,1.66,3.8S66.69,161,67.16,158.92Zm1.92,8.22c.59-2.55,2.44-3.9,4.52-3.42s3.13,2.53,2.54,5.07-2.43,3.91-4.53,3.42S68.48,169.68,69.08,167.14ZM75,168.53c.47-2-.18-3.46-1.65-3.8s-2.7.64-3.17,2.67.2,3.46,1.65,3.8S74.55,170.54,75,168.53Z" style="fill:#f5f5f5"/>
  </g>
  <g id="freepik--Label--inject-364" transform="matrix(0.953728, 0, 0, 0.953728, 17.33868, 19.429073)">
    <path d="M536.23,212.79c-.14,0-2.94-19.55-6.26-43.71s-5.89-43.76-5.74-43.78,2.94,19.55,6.26,43.71S536.38,212.77,536.23,212.79Z" style="fill:#263238"/>
    <path d="M618.68,105.76a1.26,1.26,0,0,1-.09.3l-.32.87L617,110.26l-4.76,12.22c-4,10.32-9.48,24.6-15.3,40.47s-10.87,30.3-14.47,40.77c-1.79,5.21-3.24,9.44-4.25,12.41-.5,1.43-.89,2.56-1.17,3.37-.13.36-.24.64-.32.87a1.48,1.48,0,0,1-.12.29,1.05,1.05,0,0,1,.07-.31l.27-.89c.25-.81.61-2,1.07-3.4.94-2.95,2.34-7.21,4.1-12.46,3.52-10.5,8.52-25,14.34-40.83s11.33-30.14,15.43-40.43c2-5.14,3.74-9.3,4.93-12.16l1.37-3.29c.15-.35.28-.63.37-.85Z" style="fill:#263238"/>
    <path d="M677.76,182.72c.09.11-14.22,11.32-32,25s-32.2,24.74-32.29,24.62,14.23-11.32,32-25S677.68,182.6,677.76,182.72Z" style="fill:#263238"/>
    <path d="M501.52,216.44c-.12.09-5.65-7-12.36-15.76s-12.07-16-12-16.07,5.65,7,12.36,15.76S501.63,216.35,501.52,216.44Z" style="fill:#263238"/>
    <path d="M671,271.56c0,.14-8.81-2.3-19.59-5.44s-19.48-5.8-19.44-5.94,8.81,2.3,19.59,5.44S671.05,271.42,671,271.56Z" style="fill:#263238"/>
    <polygon points="544.99 271.24 551.49 267.5 554.94 260.84 558.69 267.34 565.35 270.8 558.85 274.54 555.39 281.2 551.65 274.7 544.99 271.24" style="fill:#fff"/>
    <polygon points="509.85 260.92 512.13 259.61 513.34 257.28 514.65 259.55 516.98 260.76 514.7 262.07 513.49 264.4 512.18 262.13 509.85 260.92" style="fill:#fff"/>
    <polygon points="532.29 306.85 536.69 304.32 539.03 299.81 541.56 304.21 546.07 306.55 541.67 309.08 539.33 313.59 536.8 309.19 532.29 306.85" style="fill:#fff"/>
  </g>
  <g id="freepik--Floor--inject-364" transform="matrix(0.953728, 0, 0, 0.953728, 17.33868, 19.429073)"/>
  <g id="freepik--Stars--inject-364" transform="matrix(0.953728, 0, 0, 0.953728, 17.33868, 19.429073)">
    <polygon points="362.32 202.18 364.22 205.65 367.69 207.55 364.22 209.45 362.32 212.92 360.42 209.45 356.95 207.55 360.42 205.65 362.32 202.18" style="fill:#FF6600"/>
    <polygon points="375 154.66 376.97 154.53 378.56 153.35 378.69 155.33 379.87 156.92 377.89 157.05 376.3 158.22 376.17 156.25 375 154.66" style="fill:#FF6600"/>
    <polygon points="694.86 312.46 696.83 312.33 698.42 311.15 698.55 313.13 699.73 314.72 697.75 314.85 696.16 316.02 696.03 314.05 694.86 312.46" style="fill:#FF6600"/>
    <polygon points="469.55 213.73 471.52 213.6 473.12 212.43 473.25 214.4 474.42 215.99 472.45 216.12 470.85 217.29 470.73 215.32 469.55 213.73" style="fill:#FF6600"/>
    <polygon points="481.57 129.23 483.54 129.1 485.13 127.93 485.26 129.9 486.43 131.49 484.46 131.62 482.87 132.8 482.74 130.82 481.57 129.23" style="fill:#FF6600"/>
    <polygon points="421.02 181.67 424.02 179.94 425.61 176.87 427.34 179.87 430.42 181.47 427.42 183.19 425.82 186.27 424.09 183.27 421.02 181.67" style="fill:#FF6600"/>
    <polygon points="673.07 352.18 676.07 350.45 677.66 347.38 679.39 350.38 682.46 351.97 679.46 353.7 677.87 356.77 676.14 353.77 673.07 352.18" style="fill:#FF6600"/>
    <polygon points="658 297.33 661 295.6 662.6 292.53 664.33 295.53 667.4 297.12 664.4 298.85 662.8 301.93 661.08 298.92 658 297.33" style="fill:#FF6600"/>
  </g>
</svg>