<?xml version="1.0" encoding="utf-8"?>
<svg xmlns="http://www.w3.org/2000/svg" viewBox="0 0 750 500">
  <g id="freepik--Pin--inject-275" transform="matrix(1.044438, 0, 0, 1.03008, 102.309845, -5.615259)" style="">
    <g id="freepik--pin--inject-275">
      <path d="M114.59,158v-4.2a53.12,53.12,0,0,1,2.71-16.12v0c4.4-13.63,13.66-26.64,24.38-32.82,6.82-3.94,13-4.43,17.81-2.06l-9.38-5.4a13.82,13.82,0,0,0-7.8-2.28,11.88,11.88,0,0,0-1.32.06,10.71,10.71,0,0,0-1.36.16,9.45,9.45,0,0,0-1.39.26c-.47.1-1,.23-1.43.37a27.13,27.13,0,0,0-2.94,1.09c-.5.22-1,.47-1.51.71s-1,.54-1.53.83c-15,8.64-27.07,30.56-27.07,49v4.19c0,18.41,24.75,38.41,24.75,38.41l10,5.66a3.47,3.47,0,0,1-.51-.37C130.64,188.63,114.59,172.19,114.59,158Zm29.55-38.7a10.24,10.24,0,0,1,.18,1.41c0,.15,0,.31,0,.49a7.68,7.68,0,0,1,0,.84c0,8.62-6.06,19.13-13.55,23.45-.27.15-.54.3-.81.43s-.54.26-.8.38l-.78.32-.08,0c1.17,6.6,6.67,8.91,13.32,5.09,7.47-4.32,13.53-14.82,13.53-23.46C155.21,120.65,150.44,117,144.14,119.32Z" style="fill:#FF6600"/>
      <path d="M114.59,158v-4.2a53.12,53.12,0,0,1,2.71-16.12v0c4.4-13.63,13.66-26.64,24.38-32.82,6.82-3.94,13-4.43,17.81-2.06l-9.38-5.4a13.82,13.82,0,0,0-7.8-2.28,11.88,11.88,0,0,0-1.32.06,10.71,10.71,0,0,0-1.36.16,9.45,9.45,0,0,0-1.39.26c-.47.1-1,.23-1.43.37a27.13,27.13,0,0,0-2.94,1.09c-.5.22-1,.47-1.51.71s-1,.54-1.53.83c-15,8.64-27.07,30.56-27.07,49v4.19c0,18.41,24.75,38.41,24.75,38.41l10,5.66a3.47,3.47,0,0,1-.51-.37C130.64,188.63,114.59,172.19,114.59,158Z" style="opacity:0.2"/>
      <path d="M144.14,119.32a10.24,10.24,0,0,1,.18,1.41c0,.15,0,.31,0,.49a7.68,7.68,0,0,1,0,.84c0,8.62-6.06,19.13-13.55,23.45-.27.15-.54.3-.81.43s-.54.26-.8.38l-.78.32-.08,0c1.17,6.6,6.67,8.91,13.32,5.09,7.47-4.32,13.53-14.82,13.53-23.46C155.21,120.65,150.44,117,144.14,119.32Z" style="opacity:0.5"/>
      <path d="M168.75,122.55c0-18.4-12.13-26.33-27.08-17.69s-27.08,30.55-27.08,49V158c0,14.18,16.06,30.63,23.44,37.44a3.65,3.65,0,0,0,5.76-1.07c6.38-13.06,25-52.39,25-67.64Zm-27.08,29.21c-7.48,4.32-13.54.82-13.54-7.82s6.06-19.13,13.54-23.45,13.54-.82,13.54,7.82S149.15,147.44,141.67,151.76Z" style="fill:#FF6600"/>
      <path d="M159.49,102.8l-9.38-5.4a13.82,13.82,0,0,0-7.8-2.28,11.88,11.88,0,0,0-1.32.06,10.71,10.71,0,0,0-1.36.16,9.45,9.45,0,0,0-1.39.26c-.47.1-1,.23-1.43.37a27.13,27.13,0,0,0-2.94,1.09c-.5.22-1,.47-1.51.71s-1,.54-1.53.83c-10.11,5.84-18.92,17.76-23.57,30.56l10.83,6.25c4.65-12.79,13.47-24.71,23.59-30.55C148.5,100.92,154.73,100.43,159.49,102.8Z" style="fill:#FF6600"/>
      <path d="M159.49,102.8l-9.38-5.4a13.82,13.82,0,0,0-7.8-2.28,11.88,11.88,0,0,0-1.32.06,10.71,10.71,0,0,0-1.36.16,9.45,9.45,0,0,0-1.39.26c-.47.1-1,.23-1.43.37a27.13,27.13,0,0,0-2.94,1.09c-.5.22-1,.47-1.51.71s-1,.54-1.53.83c-10.11,5.84-18.92,17.76-23.57,30.56l10.83,6.25c4.65-12.79,13.47-24.71,23.59-30.55C148.5,100.92,154.73,100.43,159.49,102.8Z" style="fill:#fff;opacity:0.30000000000000004"/>
      <path d="M141.68,104.86l-1.6,1.1a17.46,17.46,0,0,0-1.58,1.13c-1,.83-2.06,1.58-3,2.5s-1.91,1.74-2.77,2.71l-1.33,1.41-1.24,1.49a70.72,70.72,0,0,0-13.87,27.41c-.34,1.25-.54,2.53-.81,3.79s-.35,2.56-.54,3.84-.19,2.58-.25,3.88L114.6,158l-.11-3.89c0-1.3,0-2.61.05-3.91s.23-2.61.42-3.9.39-2.58.7-3.85a64.32,64.32,0,0,1,14-27.7A44.47,44.47,0,0,1,141.68,104.86Z" style="fill:#FF6600"/>
      <g style="opacity:0.5">
        <path d="M141.68,104.86l-1.6,1.1a17.46,17.46,0,0,0-1.58,1.13c-1,.83-2.06,1.58-3,2.5s-1.91,1.74-2.77,2.71l-1.33,1.41-1.24,1.49a70.72,70.72,0,0,0-13.87,27.41c-.34,1.25-.54,2.53-.81,3.79s-.35,2.56-.54,3.84-.19,2.58-.25,3.88L114.6,158l-.11-3.89c0-1.3,0-2.61.05-3.91s.23-2.61.42-3.9.39-2.58.7-3.85a64.32,64.32,0,0,1,14-27.7A44.47,44.47,0,0,1,141.68,104.86Z" style="fill:#fff"/>
      </g>
    </g>
  </g>
</svg>